<svg width="565" height="118" viewBox="0 0 565 118" fill="none" xmlns="http://www.w3.org/2000/svg">
<mask id="path-1-outside-1_2738_22887" maskUnits="userSpaceOnUse" x="-0.995117" y="-1.00781" width="566" height="119" fill="black">
<rect fill="white" x="-0.995117" y="-1.00781" width="566" height="119"/>
<path d="M111.64 62.2809L99.3997 71.4809C96.8697 84.4709 88.4797 113.641 74.2797 117.021C69.9497 118.051 65.8597 115.621 65.0497 111.171C62.8097 98.8809 77.3397 84.1109 86.2197 77.3309L96.6997 69.3209C97.8597 62.2409 99.2297 55.6709 99.3397 48.1909C69.6997 77.7009 31.6797 48.9909 9.15971 59.5409C5.88971 61.0709 3.81971 63.2509 2.34971 66.5509C2.05971 67.1909 0.0397094 66.2009 0.0097094 65.4209C-0.0802906 63.2509 1.09971 61.5309 2.59971 60.1809C10.9297 52.7109 24.3397 53.6009 34.8597 55.2309L56.3197 58.5509C62.5597 59.5209 68.6097 59.2409 74.7697 58.0509C84.7097 56.1309 93.2397 51.0609 99.3797 43.0709C100.03 42.2209 100.44 41.6809 101.35 41.9309C102.35 42.2109 102.7 42.8709 102.72 44.0209C102.81 51.7509 101.44 58.9809 100.51 66.8609C107.61 61.7009 113.82 56.9309 119.21 50.8309C120.26 49.6409 120.68 44.6109 123.47 45.6509C126.26 46.6909 119.57 54.5609 120 64.9409C120.06 66.4409 120.61 67.9609 121.49 68.5609C127.13 72.4609 138.02 58.1509 141.15 54.2909C145.28 49.1909 144.65 45.9909 147.25 47.2709C149.24 48.2409 144.44 58.6409 144.67 62.1909L151.96 52.6809C154 50.0109 159.52 45.9109 163.15 48.3509C165.55 49.9709 165.1 56.6709 165.34 59.6309C166.09 68.7609 172.2 75.5709 181.33 77.1009C188.53 78.3009 195.74 77.4009 202.71 75.0509C206.87 73.6409 210.89 72.2209 214.51 69.2609C205.4 61.3609 195.53 46.9309 198.93 34.6709C199.96 30.9509 202.32 28.0009 205.38 26.8809C209.26 25.4609 213.2 26.4609 216.22 29.1409C218.34 31.0209 219.17 33.6709 220.84 36.2709C223.94 31.1709 227.13 26.5309 233.11 25.1909C238.67 23.9409 243.47 27.3309 244.19 32.9809C245.72 44.9509 230.76 62.6309 220.69 69.0909C221.36 70.3709 222.59 71.0909 224.01 71.8009C240.1 79.9509 256.61 73.7809 269.08 62.4209C274.59 57.4109 279.33 52.2609 283.12 45.9409C283.53 45.2509 284.26 45.0609 284.9 45.1209C288.34 45.4509 281.99 57.3809 282.71 61.2209C285.7 56.3309 293.61 39.4009 300.67 43.6209C304.8 46.0909 300.58 59.2409 301.85 59.8109C302.95 60.3109 304.84 54.0509 310.43 51.9309C311.9 51.3709 313.36 51.2809 314.61 52.2509C318.81 55.4909 312.34 67.6409 317.18 70.2509C320.54 72.0609 328.79 61.2909 330.78 58.5909C333.06 55.4809 335.06 52.4609 338.08 49.9609C341.65 47.0109 348.13 45.2809 351.91 49.0309C353.1 47.9209 353.16 45.2909 355.25 45.7709C356.29 46.0109 356.62 47.1609 356.23 48.2909C354.66 52.8509 349.56 67.3909 354.48 70.6509C359.4 73.9109 369.42 58.8409 371.91 55.2509C375.74 49.7309 375.21 46.8809 377.31 47.0109C378.03 47.0509 378.87 47.7309 378.66 48.8209C377.8 53.2409 376.21 57.2209 375.55 62.0609C377.77 60.0409 378.84 57.6409 380.58 55.4009C383.37 51.8109 389.14 45.6709 393.64 48.0609C398.93 50.8609 392.98 63.9709 396.89 67.1509C399.93 69.6209 406.79 61.9009 408.43 59.8309L417 48.9509C418.98 46.4309 421.85 44.7409 425.12 44.4009C427.29 44.1709 429.55 45.3709 430.34 46.9409C431.38 49.0109 431.18 51.8409 429.4 53.2309C428.78 53.7209 428.03 53.2409 427.82 52.8909C427.04 51.5809 428.35 49.6409 427.16 48.1409C424.16 44.3809 413.01 55.3709 413.31 65.9509C413.36 67.7809 414.08 69.6309 415.32 70.4909C420.13 73.8609 429.19 67.5309 432.21 64.0809C435.66 60.1609 441.26 56.7309 443.18 51.7409L451.35 24.7909C453.23 18.5809 459.98 2.49089 466.94 0.210887C469.45 -0.609113 472.04 0.950887 472.34 3.65089C472.53 5.44089 472.59 7.26089 472.2 9.00089C468.96 23.4809 456.13 41.3909 446.97 52.9909C445.27 56.5109 445.27 61.0109 444.4 64.9609C446.74 63.2309 447.13 60.7109 448.64 58.5409C451.33 54.6909 456.4 46.6609 461.54 49.6309C462.51 50.1909 463.36 51.9009 463.38 53.4709L463.55 64.8309C463.57 66.3709 464.26 68.6409 466.04 68.9309C471.86 69.8809 482.13 52.3109 484.66 47.8409C485 47.2409 486.53 47.5309 486.93 47.8409C488.91 49.2909 482.69 56.4109 483.18 66.4509C483.23 67.4809 483.73 68.4009 484.42 68.8109C487.01 70.3609 492.25 63.4309 493.71 61.1009C496.8 56.1609 499.37 51.1709 501.93 45.9609C502.34 45.1209 503.52 45.1309 504.09 45.3309C504.92 45.6309 505.13 46.9509 504.81 47.9609C503.02 53.7009 497.33 68.4409 504.13 72.3009C507.37 74.1409 511.42 73.1409 514.8 71.9209C520.86 69.7409 526.38 67.0209 532.23 64.3409C541.33 60.1609 554.69 54.3109 563.47 61.3609C564.19 61.9409 564.31 62.8609 564.27 63.6309C564.22 64.5409 563.54 64.8309 562.66 64.8609C561.78 64.8909 561.3 64.3809 560.58 63.7009C553.92 57.4409 538.98 64.5009 531.89 67.8009C524.22 71.3709 508.43 80.0709 501.47 74.3109C495.96 69.7509 498.42 61.2909 497.65 61.1309C496.72 60.9409 492.51 71.4109 485.42 72.0909C478.33 72.7709 480.53 62.5709 479.75 62.0709C478.81 61.4709 471.6 74.1309 464.75 71.8809C456.54 69.1809 463.08 53.6309 459.19 52.4009C456.41 51.5209 449.79 62.5009 448.51 65.0409L442.49 76.9909C442.04 77.8809 441.23 78.2209 440.52 77.9709C439.74 77.7009 439.17 76.8809 439.3 75.8809C440.03 70.3409 440.99 65.0309 442.04 59.4609C442.11 59.1109 441.47 58.9309 441.29 59.2109C439.49 62.0609 437.03 63.8909 434.64 66.1209C429.44 70.9809 419.23 78.1709 412.75 72.3809C408.53 68.6109 411.19 61.7509 409.39 63.6609C406.92 66.2709 404.59 68.7209 401.23 70.0209C398.93 70.9009 396.11 71.1109 394.32 69.1309C389.99 64.3509 394.07 56.1509 392.2 51.2809C391.72 50.0309 389.22 51.1909 388.45 51.8609C384.04 55.6709 380.71 60.2209 377.73 65.2009L373.08 72.9709C372.53 73.8809 371.76 74.3609 371.06 74.1409C369.82 73.7509 369.67 72.7509 369.91 71.5709L372.09 60.9009C369.97 62.4409 369.07 64.5209 367.41 66.3109C364.2 69.7809 358.88 75.8509 353.53 73.7409C347.16 71.2309 350.24 60.8109 348.84 60.6509C347.72 60.5209 343.58 69.6209 336.45 72.1409C333.69 73.1209 331.05 71.6209 330.24 68.9109C329.89 67.7509 329.92 66.6209 329.39 65.3509C326.77 68.7509 323.69 71.8009 319.56 73.2009C315.97 74.4209 312.91 71.9809 312.34 68.3709C311.53 63.2409 313.86 55.7309 312.42 54.9709C309.32 53.3509 301.8 66.1709 300.32 68.7009C299.82 69.5509 299.11 70.1509 298.33 70.2209C297.69 70.2809 296.23 69.9409 296.43 68.8409L299.05 54.3009C299.47 51.9909 299.87 49.3509 299.08 47.1609C298.54 45.6609 296.69 46.5209 295.91 47.2309C289.25 53.2809 284.07 65.9609 280.22 74.0809C279.77 75.0309 279.3 75.6909 278.37 75.6609C277.44 75.6309 276.56 74.6709 276.71 73.4209C277.43 67.7409 278.86 62.3709 280.11 56.8309C280.17 56.5609 280.05 56.1409 279.91 56.1809C278.77 56.5009 270.61 68.4009 254.72 75.3509C242.34 80.7709 228.48 79.4709 217.5 71.2909C208.15 77.7509 192.16 82.6209 180.94 80.0709C171.71 78.7809 164.7 72.1209 162.67 63.0809C161.81 59.2609 162.09 55.5209 161.57 51.6209C161.37 50.1809 158.81 51.0009 157.99 51.6309C153.91 54.8209 150.84 58.6209 148.21 63.0409L142.29 72.9909C141.76 73.8809 140.92 74.2209 140.22 74.0509C139.25 73.8209 138.72 73.0409 138.91 71.9409C139.69 67.5309 141.23 63.5809 141.74 58.8309C136.88 63.7709 130.82 71.7009 123.85 72.2509C120.15 72.5409 117.63 70.2109 117.05 66.8609C116.47 63.5109 117.05 60.8209 117.3 57.2809L111.6 62.3009L111.64 62.2809ZM448.56 45.5909C453.27 40.1309 456.67 34.7309 460.06 28.9609C464.22 21.9709 467.95 15.0109 469.49 6.95089C469.74 5.81089 469.65 2.94089 468.01 3.24089C460.32 4.65089 449.92 37.4109 448.56 45.5909ZM218.2 67.1209C224.72 62.4409 230.47 56.8509 234.98 50.2709C238.4 45.2809 245.06 33.1509 238.43 28.9909C231.8 24.8309 223.75 35.1209 221.75 43.1509C221.47 44.2909 220.51 44.6309 219.52 44.5209C217.25 44.2509 220.04 37.6609 214.2 31.5809C212.33 29.6309 209.91 28.9009 207.14 29.5209C205.17 29.9709 203.2 31.7709 202.28 34.2809C196.72 49.3709 216.6 68.2709 218.2 67.1209ZM350.31 51.6409C348.26 49.8109 345.72 49.4709 343.35 50.6209C333.7 55.3009 331.01 67.6509 334.47 69.0209C338.53 70.6309 348.75 55.4909 350.32 51.6309L350.31 51.6409ZM79.2497 110.661C87.5297 102.181 92.9197 86.3109 95.4497 74.2809C84.7497 81.8409 68.1797 95.7509 67.7197 109.171C68.0397 111.031 68.5497 112.731 69.8497 113.611C73.0697 115.801 76.6697 112.781 79.2497 110.661Z"/>
</mask>
<path d="M111.64 62.2809L99.3997 71.4809C96.8697 84.4709 88.4797 113.641 74.2797 117.021C69.9497 118.051 65.8597 115.621 65.0497 111.171C62.8097 98.8809 77.3397 84.1109 86.2197 77.3309L96.6997 69.3209C97.8597 62.2409 99.2297 55.6709 99.3397 48.1909C69.6997 77.7009 31.6797 48.9909 9.15971 59.5409C5.88971 61.0709 3.81971 63.2509 2.34971 66.5509C2.05971 67.1909 0.0397094 66.2009 0.0097094 65.4209C-0.0802906 63.2509 1.09971 61.5309 2.59971 60.1809C10.9297 52.7109 24.3397 53.6009 34.8597 55.2309L56.3197 58.5509C62.5597 59.5209 68.6097 59.2409 74.7697 58.0509C84.7097 56.1309 93.2397 51.0609 99.3797 43.0709C100.03 42.2209 100.44 41.6809 101.35 41.9309C102.35 42.2109 102.7 42.8709 102.72 44.0209C102.81 51.7509 101.44 58.9809 100.51 66.8609C107.61 61.7009 113.82 56.9309 119.21 50.8309C120.26 49.6409 120.68 44.6109 123.47 45.6509C126.26 46.6909 119.57 54.5609 120 64.9409C120.06 66.4409 120.61 67.9609 121.49 68.5609C127.13 72.4609 138.02 58.1509 141.15 54.2909C145.28 49.1909 144.65 45.9909 147.25 47.2709C149.24 48.2409 144.44 58.6409 144.67 62.1909L151.96 52.6809C154 50.0109 159.52 45.9109 163.15 48.3509C165.55 49.9709 165.1 56.6709 165.34 59.6309C166.09 68.7609 172.2 75.5709 181.33 77.1009C188.53 78.3009 195.74 77.4009 202.71 75.0509C206.87 73.6409 210.89 72.2209 214.51 69.2609C205.4 61.3609 195.53 46.9309 198.93 34.6709C199.96 30.9509 202.32 28.0009 205.38 26.8809C209.26 25.4609 213.2 26.4609 216.22 29.1409C218.34 31.0209 219.17 33.6709 220.84 36.2709C223.94 31.1709 227.13 26.5309 233.11 25.1909C238.67 23.9409 243.47 27.3309 244.19 32.9809C245.72 44.9509 230.76 62.6309 220.69 69.0909C221.36 70.3709 222.59 71.0909 224.01 71.8009C240.1 79.9509 256.61 73.7809 269.08 62.4209C274.59 57.4109 279.33 52.2609 283.12 45.9409C283.53 45.2509 284.26 45.0609 284.9 45.1209C288.34 45.4509 281.99 57.3809 282.71 61.2209C285.7 56.3309 293.61 39.4009 300.67 43.6209C304.8 46.0909 300.58 59.2409 301.85 59.8109C302.95 60.3109 304.84 54.0509 310.43 51.9309C311.9 51.3709 313.36 51.2809 314.61 52.2509C318.81 55.4909 312.34 67.6409 317.18 70.2509C320.54 72.0609 328.79 61.2909 330.78 58.5909C333.06 55.4809 335.06 52.4609 338.08 49.9609C341.65 47.0109 348.13 45.2809 351.91 49.0309C353.1 47.9209 353.16 45.2909 355.25 45.7709C356.29 46.0109 356.62 47.1609 356.23 48.2909C354.66 52.8509 349.56 67.3909 354.48 70.6509C359.4 73.9109 369.42 58.8409 371.91 55.2509C375.74 49.7309 375.21 46.8809 377.31 47.0109C378.03 47.0509 378.87 47.7309 378.66 48.8209C377.8 53.2409 376.21 57.2209 375.55 62.0609C377.77 60.0409 378.84 57.6409 380.58 55.4009C383.37 51.8109 389.14 45.6709 393.64 48.0609C398.93 50.8609 392.98 63.9709 396.89 67.1509C399.93 69.6209 406.79 61.9009 408.43 59.8309L417 48.9509C418.98 46.4309 421.85 44.7409 425.12 44.4009C427.29 44.1709 429.55 45.3709 430.34 46.9409C431.38 49.0109 431.18 51.8409 429.4 53.2309C428.78 53.7209 428.03 53.2409 427.82 52.8909C427.04 51.5809 428.35 49.6409 427.16 48.1409C424.16 44.3809 413.01 55.3709 413.31 65.9509C413.36 67.7809 414.08 69.6309 415.32 70.4909C420.13 73.8609 429.19 67.5309 432.21 64.0809C435.66 60.1609 441.26 56.7309 443.18 51.7409L451.35 24.7909C453.23 18.5809 459.98 2.49089 466.94 0.210887C469.45 -0.609113 472.04 0.950887 472.34 3.65089C472.53 5.44089 472.59 7.26089 472.2 9.00089C468.96 23.4809 456.13 41.3909 446.97 52.9909C445.27 56.5109 445.27 61.0109 444.4 64.9609C446.74 63.2309 447.13 60.7109 448.64 58.5409C451.33 54.6909 456.4 46.6609 461.54 49.6309C462.51 50.1909 463.36 51.9009 463.38 53.4709L463.55 64.8309C463.57 66.3709 464.26 68.6409 466.04 68.9309C471.86 69.8809 482.13 52.3109 484.66 47.8409C485 47.2409 486.53 47.5309 486.93 47.8409C488.91 49.2909 482.69 56.4109 483.18 66.4509C483.23 67.4809 483.73 68.4009 484.42 68.8109C487.01 70.3609 492.25 63.4309 493.71 61.1009C496.8 56.1609 499.37 51.1709 501.93 45.9609C502.34 45.1209 503.52 45.1309 504.09 45.3309C504.92 45.6309 505.13 46.9509 504.81 47.9609C503.02 53.7009 497.33 68.4409 504.13 72.3009C507.37 74.1409 511.42 73.1409 514.8 71.9209C520.86 69.7409 526.38 67.0209 532.23 64.3409C541.33 60.1609 554.69 54.3109 563.47 61.3609C564.19 61.9409 564.31 62.8609 564.27 63.6309C564.22 64.5409 563.54 64.8309 562.66 64.8609C561.78 64.8909 561.3 64.3809 560.58 63.7009C553.92 57.4409 538.98 64.5009 531.89 67.8009C524.22 71.3709 508.43 80.0709 501.47 74.3109C495.96 69.7509 498.42 61.2909 497.65 61.1309C496.72 60.9409 492.51 71.4109 485.42 72.0909C478.33 72.7709 480.53 62.5709 479.75 62.0709C478.81 61.4709 471.6 74.1309 464.75 71.8809C456.54 69.1809 463.08 53.6309 459.19 52.4009C456.41 51.5209 449.79 62.5009 448.51 65.0409L442.49 76.9909C442.04 77.8809 441.23 78.2209 440.52 77.9709C439.74 77.7009 439.17 76.8809 439.3 75.8809C440.03 70.3409 440.99 65.0309 442.04 59.4609C442.11 59.1109 441.47 58.9309 441.29 59.2109C439.49 62.0609 437.03 63.8909 434.64 66.1209C429.44 70.9809 419.23 78.1709 412.75 72.3809C408.53 68.6109 411.19 61.7509 409.39 63.6609C406.92 66.2709 404.59 68.7209 401.23 70.0209C398.93 70.9009 396.11 71.1109 394.32 69.1309C389.99 64.3509 394.07 56.1509 392.2 51.2809C391.72 50.0309 389.22 51.1909 388.45 51.8609C384.04 55.6709 380.71 60.2209 377.73 65.2009L373.08 72.9709C372.53 73.8809 371.76 74.3609 371.06 74.1409C369.82 73.7509 369.67 72.7509 369.91 71.5709L372.09 60.9009C369.97 62.4409 369.07 64.5209 367.41 66.3109C364.2 69.7809 358.88 75.8509 353.53 73.7409C347.16 71.2309 350.24 60.8109 348.84 60.6509C347.72 60.5209 343.58 69.6209 336.45 72.1409C333.69 73.1209 331.05 71.6209 330.24 68.9109C329.89 67.7509 329.92 66.6209 329.39 65.3509C326.77 68.7509 323.69 71.8009 319.56 73.2009C315.97 74.4209 312.91 71.9809 312.34 68.3709C311.53 63.2409 313.86 55.7309 312.42 54.9709C309.32 53.3509 301.8 66.1709 300.32 68.7009C299.82 69.5509 299.11 70.1509 298.33 70.2209C297.69 70.2809 296.23 69.9409 296.43 68.8409L299.05 54.3009C299.47 51.9909 299.87 49.3509 299.08 47.1609C298.54 45.6609 296.69 46.5209 295.91 47.2309C289.25 53.2809 284.07 65.9609 280.22 74.0809C279.77 75.0309 279.3 75.6909 278.37 75.6609C277.44 75.6309 276.56 74.6709 276.71 73.4209C277.43 67.7409 278.86 62.3709 280.11 56.8309C280.17 56.5609 280.05 56.1409 279.91 56.1809C278.77 56.5009 270.61 68.4009 254.72 75.3509C242.34 80.7709 228.48 79.4709 217.5 71.2909C208.15 77.7509 192.16 82.6209 180.94 80.0709C171.71 78.7809 164.7 72.1209 162.67 63.0809C161.81 59.2609 162.09 55.5209 161.57 51.6209C161.37 50.1809 158.81 51.0009 157.99 51.6309C153.91 54.8209 150.84 58.6209 148.21 63.0409L142.29 72.9909C141.76 73.8809 140.92 74.2209 140.22 74.0509C139.25 73.8209 138.72 73.0409 138.91 71.9409C139.69 67.5309 141.23 63.5809 141.74 58.8309C136.88 63.7709 130.82 71.7009 123.85 72.2509C120.15 72.5409 117.63 70.2109 117.05 66.8609C116.47 63.5109 117.05 60.8209 117.3 57.2809L111.6 62.3009L111.64 62.2809ZM448.56 45.5909C453.27 40.1309 456.67 34.7309 460.06 28.9609C464.22 21.9709 467.95 15.0109 469.49 6.95089C469.74 5.81089 469.65 2.94089 468.01 3.24089C460.32 4.65089 449.92 37.4109 448.56 45.5909ZM218.2 67.1209C224.72 62.4409 230.47 56.8509 234.98 50.2709C238.4 45.2809 245.06 33.1509 238.43 28.9909C231.8 24.8309 223.75 35.1209 221.75 43.1509C221.47 44.2909 220.51 44.6309 219.52 44.5209C217.25 44.2509 220.04 37.6609 214.2 31.5809C212.33 29.6309 209.91 28.9009 207.14 29.5209C205.17 29.9709 203.2 31.7709 202.28 34.2809C196.72 49.3709 216.6 68.2709 218.2 67.1209ZM350.31 51.6409C348.26 49.8109 345.72 49.4709 343.35 50.6209C333.7 55.3009 331.01 67.6509 334.47 69.0209C338.53 70.6309 348.75 55.4909 350.32 51.6309L350.31 51.6409ZM79.2497 110.661C87.5297 102.181 92.9197 86.3109 95.4497 74.2809C84.7497 81.8409 68.1797 95.7509 67.7197 109.171C68.0397 111.031 68.5497 112.731 69.8497 113.611C73.0697 115.801 76.6697 112.781 79.2497 110.661Z" fill="#9C86FF"/>
<path d="M111.64 62.2809L99.3997 71.4809C96.8697 84.4709 88.4797 113.641 74.2797 117.021C69.9497 118.051 65.8597 115.621 65.0497 111.171C62.8097 98.8809 77.3397 84.1109 86.2197 77.3309L96.6997 69.3209C97.8597 62.2409 99.2297 55.6709 99.3397 48.1909C69.6997 77.7009 31.6797 48.9909 9.15971 59.5409C5.88971 61.0709 3.81971 63.2509 2.34971 66.5509C2.05971 67.1909 0.0397094 66.2009 0.0097094 65.4209C-0.0802906 63.2509 1.09971 61.5309 2.59971 60.1809C10.9297 52.7109 24.3397 53.6009 34.8597 55.2309L56.3197 58.5509C62.5597 59.5209 68.6097 59.2409 74.7697 58.0509C84.7097 56.1309 93.2397 51.0609 99.3797 43.0709C100.03 42.2209 100.44 41.6809 101.35 41.9309C102.35 42.2109 102.7 42.8709 102.72 44.0209C102.81 51.7509 101.44 58.9809 100.51 66.8609C107.61 61.7009 113.82 56.9309 119.21 50.8309C120.26 49.6409 120.68 44.6109 123.47 45.6509C126.26 46.6909 119.57 54.5609 120 64.9409C120.06 66.4409 120.61 67.9609 121.49 68.5609C127.13 72.4609 138.02 58.1509 141.15 54.2909C145.28 49.1909 144.65 45.9909 147.25 47.2709C149.24 48.2409 144.44 58.6409 144.67 62.1909L151.96 52.6809C154 50.0109 159.52 45.9109 163.15 48.3509C165.55 49.9709 165.1 56.6709 165.34 59.6309C166.09 68.7609 172.2 75.5709 181.33 77.1009C188.53 78.3009 195.74 77.4009 202.71 75.0509C206.87 73.6409 210.89 72.2209 214.51 69.2609C205.4 61.3609 195.53 46.9309 198.93 34.6709C199.96 30.9509 202.32 28.0009 205.38 26.8809C209.26 25.4609 213.2 26.4609 216.22 29.1409C218.34 31.0209 219.17 33.6709 220.84 36.2709C223.94 31.1709 227.13 26.5309 233.11 25.1909C238.67 23.9409 243.47 27.3309 244.19 32.9809C245.72 44.9509 230.76 62.6309 220.69 69.0909C221.36 70.3709 222.59 71.0909 224.01 71.8009C240.1 79.9509 256.61 73.7809 269.08 62.4209C274.59 57.4109 279.33 52.2609 283.12 45.9409C283.53 45.2509 284.26 45.0609 284.9 45.1209C288.34 45.4509 281.99 57.3809 282.71 61.2209C285.7 56.3309 293.61 39.4009 300.67 43.6209C304.8 46.0909 300.58 59.2409 301.85 59.8109C302.95 60.3109 304.84 54.0509 310.43 51.9309C311.9 51.3709 313.36 51.2809 314.61 52.2509C318.81 55.4909 312.34 67.6409 317.18 70.2509C320.54 72.0609 328.79 61.2909 330.78 58.5909C333.06 55.4809 335.06 52.4609 338.08 49.9609C341.65 47.0109 348.13 45.2809 351.91 49.0309C353.1 47.9209 353.16 45.2909 355.25 45.7709C356.29 46.0109 356.62 47.1609 356.23 48.2909C354.66 52.8509 349.56 67.3909 354.48 70.6509C359.4 73.9109 369.42 58.8409 371.91 55.2509C375.74 49.7309 375.21 46.8809 377.31 47.0109C378.03 47.0509 378.87 47.7309 378.66 48.8209C377.8 53.2409 376.21 57.2209 375.55 62.0609C377.77 60.0409 378.84 57.6409 380.58 55.4009C383.37 51.8109 389.14 45.6709 393.64 48.0609C398.93 50.8609 392.98 63.9709 396.89 67.1509C399.93 69.6209 406.79 61.9009 408.43 59.8309L417 48.9509C418.98 46.4309 421.85 44.7409 425.12 44.4009C427.29 44.1709 429.55 45.3709 430.34 46.9409C431.38 49.0109 431.18 51.8409 429.4 53.2309C428.78 53.7209 428.03 53.2409 427.82 52.8909C427.04 51.5809 428.35 49.6409 427.16 48.1409C424.16 44.3809 413.01 55.3709 413.31 65.9509C413.36 67.7809 414.08 69.6309 415.32 70.4909C420.13 73.8609 429.19 67.5309 432.21 64.0809C435.66 60.1609 441.26 56.7309 443.18 51.7409L451.35 24.7909C453.23 18.5809 459.98 2.49089 466.94 0.210887C469.45 -0.609113 472.04 0.950887 472.34 3.65089C472.53 5.44089 472.59 7.26089 472.2 9.00089C468.96 23.4809 456.13 41.3909 446.97 52.9909C445.27 56.5109 445.27 61.0109 444.4 64.9609C446.74 63.2309 447.13 60.7109 448.64 58.5409C451.33 54.6909 456.4 46.6609 461.54 49.6309C462.51 50.1909 463.36 51.9009 463.38 53.4709L463.55 64.8309C463.57 66.3709 464.26 68.6409 466.04 68.9309C471.86 69.8809 482.13 52.3109 484.66 47.8409C485 47.2409 486.53 47.5309 486.93 47.8409C488.91 49.2909 482.69 56.4109 483.18 66.4509C483.23 67.4809 483.73 68.4009 484.42 68.8109C487.01 70.3609 492.25 63.4309 493.71 61.1009C496.8 56.1609 499.37 51.1709 501.93 45.9609C502.34 45.1209 503.52 45.1309 504.09 45.3309C504.92 45.6309 505.13 46.9509 504.81 47.9609C503.02 53.7009 497.33 68.4409 504.13 72.3009C507.37 74.1409 511.42 73.1409 514.8 71.9209C520.86 69.7409 526.38 67.0209 532.23 64.3409C541.33 60.1609 554.69 54.3109 563.47 61.3609C564.19 61.9409 564.31 62.8609 564.27 63.6309C564.22 64.5409 563.54 64.8309 562.66 64.8609C561.78 64.8909 561.3 64.3809 560.58 63.7009C553.92 57.4409 538.98 64.5009 531.89 67.8009C524.22 71.3709 508.43 80.0709 501.47 74.3109C495.96 69.7509 498.42 61.2909 497.65 61.1309C496.72 60.9409 492.51 71.4109 485.42 72.0909C478.33 72.7709 480.53 62.5709 479.75 62.0709C478.81 61.4709 471.6 74.1309 464.75 71.8809C456.54 69.1809 463.08 53.6309 459.19 52.4009C456.41 51.5209 449.79 62.5009 448.51 65.0409L442.49 76.9909C442.04 77.8809 441.23 78.2209 440.52 77.9709C439.74 77.7009 439.17 76.8809 439.3 75.8809C440.03 70.3409 440.99 65.0309 442.04 59.4609C442.11 59.1109 441.47 58.9309 441.29 59.2109C439.49 62.0609 437.03 63.8909 434.64 66.1209C429.44 70.9809 419.23 78.1709 412.75 72.3809C408.53 68.6109 411.19 61.7509 409.39 63.6609C406.92 66.2709 404.59 68.7209 401.23 70.0209C398.93 70.9009 396.11 71.1109 394.32 69.1309C389.99 64.3509 394.07 56.1509 392.2 51.2809C391.72 50.0309 389.22 51.1909 388.45 51.8609C384.04 55.6709 380.71 60.2209 377.73 65.2009L373.08 72.9709C372.53 73.8809 371.76 74.3609 371.06 74.1409C369.82 73.7509 369.67 72.7509 369.91 71.5709L372.09 60.9009C369.97 62.4409 369.07 64.5209 367.41 66.3109C364.2 69.7809 358.88 75.8509 353.53 73.7409C347.16 71.2309 350.24 60.8109 348.84 60.6509C347.72 60.5209 343.58 69.6209 336.45 72.1409C333.69 73.1209 331.05 71.6209 330.24 68.9109C329.89 67.7509 329.92 66.6209 329.39 65.3509C326.77 68.7509 323.69 71.8009 319.56 73.2009C315.97 74.4209 312.91 71.9809 312.34 68.3709C311.53 63.2409 313.86 55.7309 312.42 54.9709C309.32 53.3509 301.8 66.1709 300.32 68.7009C299.82 69.5509 299.11 70.1509 298.33 70.2209C297.69 70.2809 296.23 69.9409 296.43 68.8409L299.05 54.3009C299.47 51.9909 299.87 49.3509 299.08 47.1609C298.54 45.6609 296.69 46.5209 295.91 47.2309C289.25 53.2809 284.07 65.9609 280.22 74.0809C279.77 75.0309 279.3 75.6909 278.37 75.6609C277.44 75.6309 276.56 74.6709 276.71 73.4209C277.43 67.7409 278.86 62.3709 280.11 56.8309C280.17 56.5609 280.05 56.1409 279.91 56.1809C278.77 56.5009 270.61 68.4009 254.72 75.3509C242.34 80.7709 228.48 79.4709 217.5 71.2909C208.15 77.7509 192.16 82.6209 180.94 80.0709C171.71 78.7809 164.7 72.1209 162.67 63.0809C161.81 59.2609 162.09 55.5209 161.57 51.6209C161.37 50.1809 158.81 51.0009 157.99 51.6309C153.91 54.8209 150.84 58.6209 148.21 63.0409L142.29 72.9909C141.76 73.8809 140.92 74.2209 140.22 74.0509C139.25 73.8209 138.72 73.0409 138.91 71.9409C139.69 67.5309 141.23 63.5809 141.74 58.8309C136.88 63.7709 130.82 71.7009 123.85 72.2509C120.15 72.5409 117.63 70.2109 117.05 66.8609C116.47 63.5109 117.05 60.8209 117.3 57.2809L111.6 62.3009L111.64 62.2809ZM448.56 45.5909C453.27 40.1309 456.67 34.7309 460.06 28.9609C464.22 21.9709 467.95 15.0109 469.49 6.95089C469.74 5.81089 469.65 2.94089 468.01 3.24089C460.32 4.65089 449.92 37.4109 448.56 45.5909ZM218.2 67.1209C224.72 62.4409 230.47 56.8509 234.98 50.2709C238.4 45.2809 245.06 33.1509 238.43 28.9909C231.8 24.8309 223.75 35.1209 221.75 43.1509C221.47 44.2909 220.51 44.6309 219.52 44.5209C217.25 44.2509 220.04 37.6609 214.2 31.5809C212.33 29.6309 209.91 28.9009 207.14 29.5209C205.17 29.9709 203.2 31.7709 202.28 34.2809C196.72 49.3709 216.6 68.2709 218.2 67.1209ZM350.31 51.6409C348.26 49.8109 345.72 49.4709 343.35 50.6209C333.7 55.3009 331.01 67.6509 334.47 69.0209C338.53 70.6309 348.75 55.4909 350.32 51.6309L350.31 51.6409ZM79.2497 110.661C87.5297 102.181 92.9197 86.3109 95.4497 74.2809C84.7497 81.8409 68.1797 95.7509 67.7197 109.171C68.0397 111.031 68.5497 112.731 69.8497 113.611C73.0697 115.801 76.6697 112.781 79.2497 110.661Z" stroke="#9C86FF" mask="url(#path-1-outside-1_2738_22887)"/>
<path d="M101.66 29.502C102.437 29.1617 103.376 29.1353 104.367 29.5479L104.566 29.6357C105.38 30.0218 105.669 30.8239 105.709 31.6025C105.749 32.3815 105.546 33.1983 105.308 33.7334C104.728 35.0339 103.028 35.913 101.488 35.3887V35.3877C100.562 35.0731 100.044 34.4021 99.8242 33.6494C99.6073 32.9063 99.6791 32.0845 99.9141 31.4277C100.215 30.5682 100.836 29.863 101.66 29.502Z" fill="#9C86FF" stroke="#9C86FF" stroke-width="0.5"/>
<path d="M126.155 34.1855C126.89 34.1869 127.665 34.441 128.137 35.1309C129.029 36.4375 128.74 37.9569 127.988 38.9346H127.987C127.133 40.0405 125.231 40.5443 123.854 39.1904L123.854 39.1895C123.236 38.5776 123.038 37.7161 123.132 36.9062C123.226 36.0984 123.614 35.3057 124.222 34.8086L124.407 34.6729C124.869 34.3728 125.516 34.1844 126.155 34.1855Z" fill="#9C86FF" stroke="#9C86FF" stroke-width="0.5"/>
</svg>
